<svg width="17" height="16" viewBox="0 0 17 16" fill="none" xmlns="http://www.w3.org/2000/svg">
<g clip-path="url(#clip0_1_293)">
<g clip-path="url(#clip1_1_293)">
<path fill-rule="evenodd" clip-rule="evenodd" d="M3.40974 8.8694L5.95421 7.55964C6.00904 7.53449 6.05723 7.4933 6.09101 7.43793C6.18124 7.29001 6.13447 7.09696 5.98655 7.00673C5.24398 6.55376 4.78168 5.74813 4.78168 4.86235C4.78168 3.47622 5.90535 2.35254 7.29148 2.35254C8.13343 2.35254 8.90428 2.7699 9.36891 3.45351C9.4663 3.59682 9.66142 3.63403 9.80472 3.53663C9.94802 3.43923 9.98524 3.24411 9.88784 3.10082C9.30762 2.2471 8.34346 1.7251 7.29148 1.7251C5.55882 1.7251 4.15422 3.12969 4.15422 4.86235C4.15422 5.78615 4.55696 6.64073 5.2294 7.22704L3.12257 8.31153C2.60019 8.58042 2.27187 9.11869 2.27187 9.70626V10.1957C2.27187 11.062 2.97418 11.7643 3.84054 11.7643C4.01381 11.7643 4.15427 11.6238 4.15427 11.4505C4.15427 11.2773 4.01381 11.1369 3.84054 11.1369C3.32071 11.1369 2.89933 10.7155 2.89933 10.1957V9.70626C2.89933 9.3537 3.09631 9.03074 3.40974 8.8694ZM5.96084 11.4018L8.52207 10.2377C8.91275 10.4123 9.34567 10.5094 9.80128 10.5094C10.2569 10.5094 10.6898 10.4123 11.0805 10.2377L13.6418 11.4018C13.9778 11.5545 14.1935 11.8895 14.1935 12.2586V12.7055C14.1935 13.2253 13.7721 13.6467 13.2523 13.6467H6.3503C5.83051 13.6467 5.40912 13.2253 5.40912 12.7055V12.2586C5.40912 11.8895 5.62485 11.5545 5.96084 11.4018ZM7.87009 9.84471C7.13593 9.27053 6.66403 8.37645 6.66403 7.37216C6.66403 5.6395 8.06862 4.2349 9.80128 4.2349C11.5339 4.2349 12.9385 5.6395 12.9385 7.37216C12.9385 8.37645 12.4666 9.27053 11.7325 9.84471L13.9013 10.8306C14.4613 11.0852 14.8209 11.6435 14.8209 12.2586V12.7055C14.8209 13.5718 14.1186 14.2741 13.2523 14.2741H6.3503C5.48398 14.2741 4.78168 13.5718 4.78168 12.7055V12.2586C4.78168 11.6435 5.14121 11.0852 5.7012 10.8306L7.87009 9.84471ZM12.3111 7.37216C12.3111 8.75828 11.1874 9.88198 9.80128 9.88198C8.41516 9.88198 7.29148 8.75828 7.29148 7.37216C7.29148 5.98603 8.41516 4.86235 9.80128 4.86235C11.1874 4.86235 12.3111 5.98603 12.3111 7.37216Z" fill="#A8A8A8"/>
</g>
</g>
<defs>
<clipPath id="clip0_1_293">
<rect width="16" height="16" fill="white" transform="translate(0.860107)"/>
</clipPath>
<clipPath id="clip1_1_293">
<rect width="16" height="16" fill="white" transform="translate(0.860107)"/>
</clipPath>
</defs>
</svg>
