<svg width="17" height="16" viewBox="0 0 17 16" fill="none" xmlns="http://www.w3.org/2000/svg">
<g clip-path="url(#clip0_1_284)">
<g clip-path="url(#clip1_1_284)">
<g clip-path="url(#clip2_1_284)">
<mask id="mask0_1_284" style="mask-type:luminance" maskUnits="userSpaceOnUse" x="1" y="0" width="15" height="16">
<path d="M15.4751 0.470703H1.67114V15.5295H15.4751V0.470703Z" fill="white"/>
</mask>
<g mask="url(#mask0_1_284)">
<path d="M15.0431 10.5884H14.8274V8.70608C14.8271 8.45657 14.7361 8.21737 14.5744 8.04094C14.4126 7.8645 14.1934 7.76524 13.9646 7.76491V3.76491C13.9643 3.51539 13.8734 3.27619 13.7116 3.09976C13.5499 2.92333 13.3306 2.82406 13.1019 2.82373H4.04308C3.81435 2.82406 3.59508 2.92333 3.43335 3.09976C3.27162 3.27619 3.18063 3.51539 3.18034 3.76491V7.76491C2.95161 7.76524 2.73235 7.8645 2.57061 8.04094C2.40888 8.21737 2.31789 8.45657 2.31759 8.70608V10.5884H2.1019C2.0447 10.5884 1.98984 10.6132 1.94939 10.6573C1.90894 10.7015 1.88622 10.7613 1.88622 10.8237V11.7649C1.88622 11.8273 1.90894 11.8872 1.94939 11.9313C1.98984 11.9754 2.0447 12.0002 2.1019 12.0002H2.31759V12.9414C2.31759 13.0038 2.34031 13.0636 2.38076 13.1078C2.42121 13.1519 2.47607 13.1767 2.53328 13.1767H3.18034C3.23018 13.1767 3.27849 13.1578 3.31704 13.1234C3.35558 13.0889 3.38197 13.0409 3.39171 12.9876L3.57288 12.0002H13.5721L13.7533 12.9876C13.763 13.0409 13.7894 13.0889 13.8279 13.1234C13.8664 13.1578 13.9148 13.1767 13.9646 13.1767H14.6117C14.6689 13.1767 14.7238 13.1519 14.7642 13.1078C14.8047 13.0636 14.8274 13.0038 14.8274 12.9414V12.0002H15.0431C15.1003 12.0002 15.1551 11.9754 15.1956 11.9313C15.236 11.8872 15.2587 11.8273 15.2587 11.7649V10.8237C15.2587 10.7613 15.236 10.7015 15.1956 10.6573C15.1551 10.6132 15.1003 10.5884 15.0431 10.5884ZM3.61171 3.76491C3.61186 3.64015 3.65735 3.52055 3.73822 3.43233C3.81908 3.34412 3.92871 3.29448 4.04308 3.29432H13.1019C13.2163 3.29448 13.3259 3.34412 13.4068 3.43233C13.4876 3.52055 13.5332 3.64015 13.5333 3.76491V7.76491H13.1019V6.82373C13.1016 6.57422 13.0106 6.33502 12.8488 6.15858C12.6871 5.98215 12.4678 5.88288 12.2391 5.88255H9.65093C9.4222 5.88288 9.20293 5.98215 9.0412 6.15858C8.87947 6.33502 8.78848 6.57422 8.78818 6.82373V7.76491H8.35681V6.82373C8.35651 6.57422 8.26551 6.33502 8.10378 6.15858C7.94205 5.98215 7.72278 5.88288 7.49406 5.88255H4.90582C4.6771 5.88288 4.45783 5.98215 4.2961 6.15858C4.13437 6.33502 4.04338 6.57422 4.04308 6.82373V7.76491H3.61171V3.76491ZM12.6705 6.82373V7.76491H9.21955V6.82373C9.2197 6.69897 9.26519 6.57937 9.34606 6.49116C9.42692 6.40294 9.53656 6.3533 9.65093 6.35314H12.2391C12.3535 6.3533 12.4631 6.40294 12.544 6.49116C12.6249 6.57937 12.6704 6.69897 12.6705 6.82373ZM7.92543 6.82373V7.76491H4.47445V6.82373C4.4746 6.69897 4.52009 6.57937 4.60096 6.49116C4.68182 6.40294 4.79146 6.3533 4.90582 6.35314H7.49406C7.60842 6.3533 7.71805 6.40294 7.79892 6.49116C7.87978 6.57937 7.92528 6.69897 7.92543 6.82373ZM2.74896 8.70608C2.74911 8.58132 2.7946 8.46173 2.87547 8.37351C2.95634 8.28529 3.06597 8.23566 3.18034 8.2355H13.9646C14.079 8.23566 14.1886 8.28529 14.2695 8.37351C14.3504 8.46173 14.3958 8.58132 14.396 8.70608V10.5884H2.74896V8.70608ZM3.00347 12.7061H2.74896V12.0002H3.13288L3.00347 12.7061ZM14.396 12.7061H14.1415L14.0121 12.0002H14.396V12.7061ZM14.8274 11.5296H2.31759V11.059H14.8274V11.5296Z" fill="#A8A8A8"/>
</g>
</g>
</g>
</g>
<defs>
<clipPath id="clip0_1_284">
<rect width="16" height="16" fill="white" transform="translate(0.72998)"/>
</clipPath>
<clipPath id="clip1_1_284">
<rect width="16" height="16" fill="white" transform="translate(0.72998)"/>
</clipPath>
<clipPath id="clip2_1_284">
<rect width="15.0588" height="16" fill="white" transform="translate(1.20056)"/>
</clipPath>
</defs>
</svg>
