<svg width="16" height="16" viewBox="0 0 16 16" fill="none" xmlns="http://www.w3.org/2000/svg">
<g clip-path="url(#clip0_1_279)">
<g clip-path="url(#clip1_1_279)">
<path fill-rule="evenodd" clip-rule="evenodd" d="M4.23529 13.0197H11.7647C11.7647 13.3662 12.0456 13.6471 12.3922 13.6471H13.0196C13.3661 13.6471 13.6471 13.3662 13.6471 13.0197V12.3923C13.6471 12.0457 13.3661 11.7648 13.0196 11.7648V4.23538C13.3661 4.23538 13.6471 3.95446 13.6471 3.60793V2.98048C13.6471 2.63395 13.3661 2.35303 13.0196 2.35303H12.3922C12.0456 2.35303 11.7647 2.63395 11.7647 2.98048H4.23529C4.23529 2.63395 3.95437 2.35303 3.60783 2.35303H2.98039C2.63386 2.35303 2.35294 2.63395 2.35294 2.98048V3.60793C2.35294 3.95446 2.63386 4.23538 2.98039 4.23538V11.7648C2.63386 11.7648 2.35294 12.0457 2.35294 12.3923V13.0197C2.35294 13.3662 2.63386 13.6471 2.98039 13.6471H3.60783C3.95437 13.6471 4.23529 13.3662 4.23529 13.0197ZM12.3922 11.7648C12.0456 11.7648 11.7647 12.0457 11.7647 12.3923H4.23529C4.23529 12.0457 3.95437 11.7648 3.60783 11.7648V4.23538C3.95437 4.23538 4.23529 3.95446 4.23529 3.60793H11.7647C11.7647 3.95446 12.0456 4.23538 12.3922 4.23538V11.7648ZM2.98039 2.98048V3.60793H3.60783V2.98048H2.98039ZM2.98039 13.0197V12.3923H3.60783V13.0197H2.98039ZM12.3922 2.98048V3.60793H13.0196V2.98048H12.3922ZM12.3922 13.0197V12.3923H13.0196V13.0197H12.3922Z" fill="#A8A8A8"/>
</g>
</g>
<defs>
<clipPath id="clip0_1_279">
<rect width="16" height="16" fill="white"/>
</clipPath>
<clipPath id="clip1_1_279">
<rect width="16" height="16" fill="white"/>
</clipPath>
</defs>
</svg>
